# 3ds Max Wavefront OBJ Exporter v0.97b - (c)2007 guruware
# File Created: 18.09.2015 02:16:50

mtllib M-5-6.mtl

#
# object M_5_6
#

v  6946.1465 -36.4943 7484.6006
v  6806.4932 -3.1076 7437.7119
v  6828.6392 122.8348 7503.0518
v  6932.5464 78.2069 7564.1240
v  6703.2236 57.7784 7359.9248
v  6758.6855 191.1624 7420.5518
v  6649.8843 139.1340 7260.4941
v  6732.6997 274.7883 7326.8193
v  6653.4893 230.6906 7151.6899
v  6754.1382 362.8622 7233.8545
v  6713.3115 320.8448 7046.7524
v  6819.5698 444.1440 7153.0732
v  6821.5815 398.2769 6957.8838
v  6920.1050 508.4991 7093.4297
v  6964.8691 453.3384 6895.1597
v  7043.2280 548.0824 7060.9785
v  7125.6245 479.4055 6865.6318
v  7174.2993 558.4045 7058.9048
v  7284.6328 473.8563 6872.5869
v  7298.3906 538.7981 7087.5801
v  7423.6025 437.9259 6915.7021
v  7401.5098 491.8082 7144.8130
v  7526.2988 375.9282 6990.9971
v  7470.9619 422.7599 7225.0493
v  7579.7959 295.0701 7090.1235
v  7497.2314 339.8750 7318.8555
v  7576.8618 205.1056 7200.9658
v  7476.5039 253.4805 7414.3291
v  7517.6152 117.0612 7309.5361
v  7411.5234 174.3531 7499.2197
v  7409.5234 41.5662 7401.9912
v  7310.9868 111.9472 7562.6445
v  7266.2036 -12.6115 7466.4648
v  7187.8281 73.0661 7596.4736
v  7105.4033 -39.5674 7494.9102
v  7056.8735 61.4075 7596.7061
v  6615.7461 -124.7031 7626.8916
v  6845.6929 -185.7188 7700.9258
v  6803.8730 -58.0199 7738.2051
v  6632.4756 23.0497 7639.7363
v  7109.8838 -196.4717 7713.5322
v  7015.1587 -94.4964 7788.2207
v  7374.8677 -154.1219 7664.0518
v  7239.7856 -79.5066 7784.3008
v  7607.6260 -64.2263 7559.4912
v  7448.5596 -14.7502 7728.1348
v  7780.4521 61.2676 7412.1455
v  7615.9131 90.5249 7626.2559
v  7873.3296 206.6061 7239.0352
v  7722.4658 222.4747 7490.2061
v  7875.6489 354.2931 7060.2900
v  7756.4829 364.9674 7335.7715
v  7786.9922 486.8540 6896.7534
v  7714.2876 501.2675 7180.8306
v  7617.1382 588.4324 6767.7480
v  7600.3354 615.3824 7043.3452
v  7385.6362 646.4638 6689.4468
v  7427.0547 693.4561 6939.9434
v  7120.7168 653.7674 6672.9023
v  7214.8599 725.6623 6884.6196
v  6855.5356 610.0474 6721.1772
v  6990.3613 708.3994 6885.7959
v  6622.7197 521.2179 6828.2793
v  6781.6553 644.5104 6943.8857
v  6450.4263 398.0418 6980.3413
v  6614.5264 541.9327 7051.2383
v  6358.9097 255.1245 7157.6660
v  6509.1406 412.8600 7193.0068
v  6357.9780 109.3549 7338.2490
v  6476.7051 272.6437 7350.5479
v  6446.9697 -22.2861 7500.9160
v  6519.5381 137.6257 7505.2666
v  7429.8208 34.8831 7420.5332
v  7279.3872 -22.6651 7488.0889
v  7109.1792 -50.5408 7519.1582
v  6939.7241 -45.3798 7509.9980
v  6791.4648 -7.8053 7461.7061
v  6682.2759 57.6505 7380.1113
v  6625.3374 143.0916 7275.0557
v  6627.5073 238.2146 7159.2070
v  6688.5303 331.5466 7046.5449
v  6801.0435 411.8269 6950.6504
v  6951.4771 469.3757 6883.0928
v  7121.6851 497.2516 6852.0225
v  7291.1396 492.0908 6861.1855
v  7439.3999 454.5168 6909.4746
v  7548.5854 389.0611 6991.0693
v  7605.5283 303.6187 7096.1260
v  7603.3555 208.4955 7211.9712
v  7542.3335 115.1643 7324.6367
v  7313.0376 554.7177 7076.7153
v  7178.5518 575.4792 7043.5015
v  7036.4502 564.4835 7045.0059
v  6903.8726 523.0587 7081.0566
v  6796.8057 456.2021 7147.2949
v  6728.1670 371.9732 7235.7354
v  6706.2378 280.5355 7335.7148
v  6733.6582 192.9171 7435.1699
v  6807.1216 119.6843 7522.1084
v  6917.7700 69.6705 7586.0391
v  7052.2544 48.9088 7619.2520
v  7194.3574 59.9041 7617.7461
v  7326.9399 101.3275 7581.7021
v  7434.0068 168.1849 7515.4570
v  7502.6406 252.4136 7427.0117
v  7524.5688 343.8521 7327.0361
v  7497.1558 431.4706 7227.5791
v  7423.6865 504.7047 7140.6445
v  6868.9448 593.2239 6730.8105
v  6642.7837 506.7042 6832.3740
v  6473.6289 386.0083 6976.5405
v  6381.8906 245.6953 7145.9204
v  6378.6265 102.6877 7320.0869
v  6464.2310 -25.7652 7478.0293
v  6628.3818 -124.1708 7600.6982
v  6851.2744 -180.6606 7673.2979
v  7106.0342 -188.4199 7687.0732
v  7361.9238 -146.5114 7640.3584
v  7588.0879 -59.9926 7538.7979
v  7757.2402 60.7014 7394.6279
v  7848.9800 201.0149 7225.2490
v  7852.2441 344.0234 7051.0850
v  7766.6392 472.4763 6893.1431
v  7602.4888 570.8833 6770.4736
v  7379.5923 627.3730 6697.8730
v  7124.8350 635.1313 6684.0986
v  7210.3418 708.0172 6898.5762
v  7412.5313 676.8048 6948.5088
v  7578.8779 601.6143 7044.6260
v  7689.3232 491.5149 7175.3242
v  7730.5483 359.7881 7324.8477
v  7697.5737 222.3203 7475.1514
v  7594.3887 95.6922 7608.1201
v  7433.4258 -4.8212 7707.7031
v  7234.1069 -67.0989 7761.8955
v  7020.4653 -83.6280 7764.1650
v  6818.2842 -52.4158 7714.2266
v  6651.9331 22.7754 7618.1133
v  6541.4878 132.8732 7487.4141
v  6500.2627 264.5995 7337.8916
v  6533.2388 402.0664 7187.5830
v  6636.4263 528.6937 7054.6191
v  6797.3862 629.2098 6955.0342
v  6996.7031 691.4883 6900.8418
# 144 vertices

vn 0.2666 0.3959 -0.8788
vn 0.5413 0.1918 -0.8186
vn 0.7124 0.2057 -0.6709
vn 0.4547 0.4657 -0.7592
vn 0.7281 -0.0180 -0.6852
vn 0.8539 -0.0498 -0.5180
vn 0.8448 -0.2067 -0.4935
vn 0.9117 -0.2604 -0.3177
vn 0.8913 -0.3768 -0.2524
vn 0.8978 -0.4341 -0.0743
vn 0.8460 -0.5330 0.0128
vn 0.7904 -0.5823 0.1902
vn 0.6921 -0.6764 0.2520
vn 0.5724 -0.7048 0.4192
vn 0.4336 -0.8024 0.4100
vn 0.2598 -0.7934 0.5504
vn 0.0965 -0.8892 0.4471
vn -0.1058 -0.8292 0.5489
vn -0.2624 -0.8972 0.3552
vn -0.4630 -0.7835 0.4144
vn -0.5675 -0.8047 0.1743
vn -0.7384 -0.6465 0.1917
vn -0.7752 -0.6309 -0.0335
vn -0.8945 -0.4447 -0.0466
vn -0.8846 -0.4073 -0.2271
vn -0.9443 -0.2107 -0.2528
vn -0.9062 -0.1565 -0.3929
vn -0.9081 0.0393 -0.4169
vn -0.8405 0.1013 -0.5322
vn -0.7867 0.2911 -0.5444
vn -0.6797 0.3339 -0.6531
vn -0.5703 0.5111 -0.6431
vn -0.4196 0.4914 -0.7632
vn -0.2628 0.6431 -0.7193
vn -0.0806 0.5175 -0.8519
vn 0.1021 0.6327 -0.7677
vn -0.5127 -0.0787 0.8550
vn -0.2684 -0.3261 0.9064
vn -0.3866 -0.1951 0.9014
vn -0.5801 0.0530 0.8128
vn 0.0750 -0.4887 0.8692
vn -0.0834 -0.4144 0.9063
vn 0.4163 -0.4653 0.7812
vn 0.2593 -0.4796 0.8383
vn 0.6678 -0.2894 0.6858
vn 0.5460 -0.3742 0.7496
vn 0.8132 -0.0469 0.5801
vn 0.7383 -0.1632 0.6545
vn 0.8696 0.2028 0.4502
vn 0.8362 0.0841 0.5419
vn 0.8529 0.4365 0.2863
vn 0.8562 0.3258 0.4008
vn 0.7592 0.6454 0.0837
vn 0.8058 0.5490 0.2218
vn 0.5664 0.8111 -0.1458
vn 0.6681 0.7440 0.0030
vn 0.2649 0.8980 -0.3512
vn 0.4178 0.8802 -0.2253
vn -0.0989 0.8873 -0.4505
vn 0.0750 0.9193 -0.3862
vn -0.4385 0.8089 -0.3916
vn -0.2792 0.8686 -0.4094
vn -0.6857 0.7032 -0.1879
vn -0.5695 0.7718 -0.2830
vn -0.8058 0.5848 0.0931
vn -0.7523 0.6575 -0.0430
vn -0.8121 0.4560 0.3641
vn -0.8118 0.5330 0.2384
vn -0.7528 0.3135 0.5788
vn -0.7772 0.4000 0.4858
vn -0.6581 0.1416 0.7395
vn -0.6962 0.2486 0.6734
vn 0.1572 -0.7863 -0.5975
vn 0.0909 -0.8183 -0.5676
vn -0.0017 -0.8689 -0.4950
vn -0.1723 -0.8895 -0.4231
vn -0.3724 -0.8219 -0.4311
vn -0.4907 -0.6881 -0.5345
vn -0.4771 -0.5613 -0.6763
vn -0.3647 -0.4905 -0.7914
vn -0.2247 -0.4779 -0.8492
vn -0.1161 -0.4895 -0.8642
vn -0.0481 -0.4827 -0.8745
vn 0.0237 -0.4386 -0.8984
vn 0.1474 -0.3895 -0.9091
vn 0.3015 -0.3974 -0.8667
vn 0.4070 -0.4802 -0.7770
vn 0.4174 -0.5972 -0.6849
vn 0.3480 -0.6981 -0.6257
vn 0.2460 -0.7578 -0.6043
vn -0.0901 0.5135 0.8534
vn -0.0499 0.5473 0.8354
vn -0.0151 0.5352 0.8446
vn 0.0788 0.4954 0.8651
vn 0.2283 0.4788 0.8477
vn 0.3681 0.5196 0.7710
vn 0.4292 0.6168 0.6598
vn 0.3745 0.7382 0.5611
vn 0.2130 0.8249 0.5236
vn 0.0262 0.8238 0.5663
vn -0.0861 0.7634 0.6402
vn -0.1360 0.7201 0.6804
vn -0.1935 0.7015 0.6858
vn -0.2694 0.6702 0.6916
vn -0.3283 0.6112 0.7201
vn -0.3365 0.5398 0.7716
vn -0.2806 0.4853 0.8281
vn -0.1798 0.4767 0.8605
vn -0.1822 -0.4115 -0.8930
vn -0.3392 -0.3949 -0.8538
vn -0.5218 -0.4073 -0.7495
vn -0.6531 -0.4909 -0.5766
vn -0.6614 -0.6443 -0.3840
vn -0.5191 -0.8185 -0.2462
vn -0.2709 -0.9347 -0.2299
vn -0.0313 -0.9445 -0.3270
vn 0.1243 -0.8905 -0.4376
vn 0.2374 -0.8376 -0.4920
vn 0.3623 -0.7790 -0.5117
vn 0.4858 -0.6815 -0.5473
vn 0.5586 -0.5425 -0.6274
vn 0.5353 -0.3949 -0.7466
vn 0.4030 -0.2935 -0.8669
vn 0.2092 -0.2831 -0.9360
vn 0.0405 -0.3441 -0.9380
vn -0.0724 -0.4018 -0.9129
vn -0.1247 0.4553 0.8816
vn -0.2524 0.4090 0.8769
vn -0.3803 0.4234 0.8222
vn -0.4474 0.4960 0.7442
vn -0.4352 0.5919 0.6785
vn -0.3575 0.6752 0.6452
vn -0.2516 0.7238 0.6425
vn -0.1614 0.7532 0.6376
vn -0.0749 0.8116 0.5795
vn 0.0920 0.8794 0.4671
vn 0.3372 0.8555 0.3928
vn 0.5345 0.7285 0.4285
vn 0.6016 0.5763 0.5532
vn 0.5304 0.4645 0.7092
vn 0.3537 0.4258 0.8328
vn 0.1525 0.4549 0.8774
vn 0.0169 0.5020 0.8647
vn -0.0488 0.5059 0.8612
# 144 vertex normals

vt 0.5468 1.0486 0.0000
vt 0.5371 0.9552 0.0000
vt 0.7664 0.8160 0.0000
vt 0.7775 0.9394 0.0000
vt 0.5280 0.7918 0.0000
vt 0.7614 0.6368 0.0000
vt 0.5208 0.5773 0.0000
vt 0.7633 0.4238 0.0000
vt 0.5160 0.3387 0.0000
vt 0.7716 0.2046 0.0000
vt 0.5138 0.1057 0.0000
vt 0.7847 0.0066 0.0000
vt 0.5132 -0.0933 0.0000
vt 0.7998 -0.1463 0.0000
vt 0.5133 -0.2345 0.0000
vt 0.8138 -0.2366 0.0000
vt 0.4679 0.4926 0.0000
vt 0.4679 0.5899 0.0000
vt 0.4169 0.5899 0.0000
vt 0.4169 0.4926 0.0000
vt 0.4679 0.6757 0.0000
vt 0.4169 0.6757 0.0000
vt 0.5143 -0.2864 0.0000
vt 0.5166 -0.1923 0.0000
vt 0.8353 -0.0751 0.0000
vt 0.8313 -0.1988 0.0000
vt 0.5216 -0.0293 0.0000
vt 0.8369 0.1033 0.0000
vt 0.5291 0.1841 0.0000
vt 0.8360 0.3152 0.0000
vt 0.5381 0.4220 0.0000
vt 0.8326 0.5340 0.0000
vt 0.5469 0.6549 0.0000
vt 0.8267 0.7322 0.0000
vt 0.5539 0.8541 0.0000
vt 0.8181 0.8854 0.0000
vt 0.5568 0.9954 0.0000
vt 0.8066 0.9759 0.0000
vt 0.3935 0.6170 0.0000
vt 0.3935 0.5235 0.0000
vt 0.4390 0.5235 0.0000
vt 0.4390 0.6170 0.0000
vt 0.3935 0.4299 0.0000
vt 0.4390 0.4299 0.0000
vt 0.3144 1.1507 0.0000
vt 0.3084 1.3111 0.0000
vt 0.1089 1.1430 0.0000
vt 0.1170 0.9299 0.0000
vt 0.3181 0.2664 0.0000
vt 0.4823 0.2664 0.0000
vt 0.4823 0.3376 0.0000
vt 0.3181 0.3376 0.0000
vt 0.6329 0.2664 0.0000
vt 0.6329 0.3376 0.0000
vt 0.3099 1.2293 0.0000
vt 0.3137 0.9970 0.0000
vt 0.0663 1.0662 0.0000
vt 0.0847 1.2169 0.0000
vt 0.3206 0.6716 0.0000
vt 0.0481 0.8121 0.0000
vt 0.3314 0.2925 0.0000
vt 0.0346 0.4864 0.0000
vt 0.3454 -0.0951 0.0000
vt 0.0282 0.1281 0.0000
vt 0.3614 -0.4458 0.0000
vt 0.0301 -0.2210 0.0000
vt 0.3777 -0.7177 0.0000
vt 0.0403 -0.5200 0.0000
vt 0.3921 -0.8771 0.0000
vt 0.0575 -0.7327 0.0000
vt 0.6526 0.7084 0.0000
vt 0.4927 0.7084 0.0000
vt 0.4927 0.6305 0.0000
vt 0.6526 0.6305 0.0000
vt 0.3328 0.7084 0.0000
vt 0.3328 0.6305 0.0000
vt 0.4023 -0.7922 0.0000
vt 0.3943 -0.5594 0.0000
vt 0.1139 -0.6524 0.0000
vt 0.0987 -0.8033 0.0000
vt 0.3793 -0.2335 0.0000
vt 0.1227 -0.3977 0.0000
vt 0.3610 0.1454 0.0000
vt 0.1263 -0.0715 0.0000
vt 0.3425 0.5317 0.0000
vt 0.1264 0.2859 0.0000
vt 0.3263 0.8802 0.0000
vt 0.1232 0.6328 0.0000
vt 0.7541 0.3430 0.0000
vt 0.6718 0.2978 0.0000
vt 0.6584 0.3055 0.0000
vt 0.7368 0.3482 0.0000
vt 0.5685 0.2742 0.0000
vt 0.5606 0.2829 0.0000
vt 0.4566 0.2753 0.0000
vt 0.4550 0.2828 0.0000
vt 0.3496 0.3009 0.0000
vt 0.3539 0.3055 0.0000
vt 0.2604 0.3478 0.0000
vt 0.2695 0.3493 0.0000
vt 0.1998 0.4105 0.0000
vt 0.2125 0.4089 0.0000
vt 0.1752 0.4813 0.0000
vt 0.1903 0.4770 0.0000
vt 0.1893 0.5517 0.0000
vt 0.2055 0.5448 0.0000
vt 0.2407 0.6133 0.0000
vt 0.2556 0.6040 0.0000
vt 0.3230 0.6586 0.0000
vt 0.3344 0.6473 0.0000
vt 0.4263 0.6821 0.0000
vt 0.4319 0.6693 0.0000
vt 0.5382 0.6810 0.0000
vt 0.5366 0.6679 0.0000
vt 0.6452 0.6555 0.0000
vt 0.6364 0.6435 0.0000
vt 0.7344 0.6085 0.0000
vt 0.7199 0.5992 0.0000
vt 0.7949 0.5459 0.0000
vt 0.7769 0.5399 0.0000
vt 0.8196 0.4750 0.0000
vt 0.8000 0.4728 0.0000
vt 0.8054 0.4046 0.0000
vt 0.7860 0.4062 0.0000
vt 0.6010 0.7136 0.0000
vt 0.5063 0.7272 0.0000
vt 0.5070 0.7147 0.0000
vt 0.5939 0.7020 0.0000
vt 0.4145 0.7172 0.0000
vt 0.4225 0.7053 0.0000
vt 0.3367 0.6848 0.0000
vt 0.3500 0.6745 0.0000
vt 0.2822 0.6339 0.0000
vt 0.2983 0.6258 0.0000
vt 0.2576 0.5708 0.0000
vt 0.2741 0.5651 0.0000
vt 0.2660 0.5029 0.0000
vt 0.2811 0.4999 0.0000
vt 0.3061 0.4385 0.0000
vt 0.3191 0.4385 0.0000
vt 0.3733 0.3854 0.0000
vt 0.3830 0.3889 0.0000
vt 0.4595 0.3499 0.0000
vt 0.4641 0.3571 0.0000
vt 0.5541 0.3364 0.0000
vt 0.5520 0.3461 0.0000
vt 0.6459 0.3464 0.0000
vt 0.6369 0.3564 0.0000
vt 0.7237 0.3788 0.0000
vt 0.7091 0.3867 0.0000
vt 0.7782 0.4296 0.0000
vt 0.7600 0.4343 0.0000
vt 0.8028 0.4928 0.0000
vt 0.7830 0.4937 0.0000
vt 0.7945 0.5607 0.0000
vt 0.7749 0.5579 0.0000
vt 0.7543 0.6250 0.0000
vt 0.7367 0.6188 0.0000
vt 0.6871 0.6782 0.0000
vt 0.6736 0.6688 0.0000
vt 0.2352 0.7494 0.0000
vt 0.1115 0.6814 0.0000
vt 0.0975 0.6911 0.0000
vt 0.2243 0.7612 0.0000
vt 0.0343 0.5888 0.0000
vt 0.0201 0.5964 0.0000
vt 0.0130 0.4829 0.0000
vt 0.0007 0.4884 0.0000
vt 0.0501 0.3764 0.0000
vt 0.0408 0.3797 0.0000
vt 0.1411 0.2822 0.0000
vt 0.1351 0.2832 0.0000
vt 0.2752 0.2116 0.0000
vt 0.2729 0.2098 0.0000
vt 0.4360 0.1732 0.0000
vt 0.4386 0.1683 0.0000
vt 0.6042 0.1716 0.0000
vt 0.6127 0.1648 0.0000
vt 0.7596 0.2069 0.0000
vt 0.7733 0.2008 0.0000
vt 0.8833 0.2750 0.0000
vt 0.9006 0.2714 0.0000
vt 0.9605 0.3676 0.0000
vt 0.9795 0.3675 0.0000
vt 0.9818 0.4735 0.0000
vt 1.0007 0.4770 0.0000
vt 0.9447 0.5800 0.0000
vt 0.9620 0.5869 0.0000
vt 0.8536 0.6742 0.0000
vt 0.8677 0.6842 0.0000
vt 0.7196 0.7447 0.0000
vt 0.7285 0.7571 0.0000
vt 0.5588 0.7831 0.0000
vt 0.5608 0.7967 0.0000
vt 0.3905 0.7848 0.0000
vt 0.3853 0.7980 0.0000
vt 0.4943 0.8255 0.0000
vt 0.6366 0.8052 0.0000
vt 0.6441 0.8173 0.0000
vt 0.4941 0.8384 0.0000
vt 0.7661 0.7519 0.0000
vt 0.7797 0.7617 0.0000
vt 0.8671 0.6720 0.0000
vt 0.8845 0.6788 0.0000
vt 0.9275 0.5752 0.0000
vt 0.9468 0.5786 0.0000
vt 0.9400 0.4732 0.0000
vt 0.9595 0.4730 0.0000
vt 0.9030 0.3782 0.0000
vt 0.9211 0.3742 0.0000
vt 0.8211 0.3018 0.0000
vt 0.8355 0.2943 0.0000
vt 0.7041 0.2531 0.0000
vt 0.7128 0.2436 0.0000
vt 0.5661 0.2380 0.0000
vt 0.5681 0.2293 0.0000
vt 0.4238 0.2584 0.0000
vt 0.4199 0.2531 0.0000
vt 0.2944 0.3117 0.0000
vt 0.2866 0.3105 0.0000
vt 0.1933 0.3916 0.0000
vt 0.1831 0.3936 0.0000
vt 0.1329 0.4884 0.0000
vt 0.1205 0.4929 0.0000
vt 0.1204 0.5904 0.0000
vt 0.1060 0.5971 0.0000
vt 0.1574 0.6854 0.0000
vt 0.1424 0.6942 0.0000
vt 0.2393 0.7618 0.0000
vt 0.2266 0.7725 0.0000
vt 0.3563 0.8105 0.0000
vt 0.3488 0.8227 0.0000
# 232 texture coords

g M_5_6
usemtl 02___Default
s 4
f 1/1/1 2/2/2 3/3/3 4/4/4 
f 2/2/2 5/5/5 6/6/6 3/3/3 
f 5/5/5 7/7/7 8/8/8 6/6/6 
f 7/7/7 9/9/9 10/10/10 8/8/8 
f 9/9/9 11/11/11 12/12/12 10/10/10 
f 11/11/11 13/13/13 14/14/14 12/12/12 
f 13/13/13 15/15/15 16/16/16 14/14/14 
f 15/17/15 17/18/17 18/19/18 16/20/16 
f 17/18/17 19/21/19 20/22/20 18/19/18 
f 19/23/19 21/24/21 22/25/22 20/26/20 
f 21/24/21 23/27/23 24/28/24 22/25/22 
f 23/27/23 25/29/25 26/30/26 24/28/24 
f 25/29/25 27/31/27 28/32/28 26/30/26 
f 27/31/27 29/33/29 30/34/30 28/32/28 
f 29/33/29 31/35/31 32/36/32 30/34/30 
f 31/35/31 33/37/33 34/38/34 32/36/32 
f 33/39/33 35/40/35 36/41/36 34/42/34 
f 35/40/35 1/43/1 4/44/4 36/41/36 
f 37/45/37 38/46/38 39/47/39 40/48/40 
f 38/49/38 41/50/41 42/51/42 39/52/39 
f 41/50/41 43/53/43 44/54/44 42/51/42 
f 43/55/43 45/56/45 46/57/46 44/58/44 
f 45/56/45 47/59/47 48/60/48 46/57/46 
f 47/59/47 49/61/49 50/62/50 48/60/48 
f 49/61/49 51/63/51 52/64/52 50/62/50 
f 51/63/51 53/65/53 54/66/54 52/64/52 
f 53/65/53 55/67/55 56/68/56 54/66/54 
f 55/67/55 57/69/57 58/70/58 56/68/56 
f 57/71/57 59/72/59 60/73/60 58/74/58 
f 59/72/59 61/75/61 62/76/62 60/73/60 
f 61/77/61 63/78/63 64/79/64 62/80/62 
f 63/78/63 65/81/65 66/82/66 64/79/64 
f 65/81/65 67/83/67 68/84/68 66/82/66 
f 67/83/67 69/85/69 70/86/70 68/84/68 
f 69/85/69 71/87/71 72/88/72 70/86/70 
f 71/87/71 37/45/37 40/48/40 72/88/72 
s off
f 73/89/73 74/90/73 33/91/73 31/92/73 
f 74/90/74 75/93/74 35/94/74 33/91/74 
f 75/93/75 76/95/75 1/96/75 35/94/75 
f 76/95/76 77/97/76 2/98/76 1/96/76 
f 77/97/77 78/99/77 5/100/77 2/98/77 
f 78/99/78 79/101/78 7/102/78 5/100/78 
f 79/101/79 80/103/79 9/104/79 7/102/79 
f 80/103/80 81/105/80 11/106/80 9/104/80 
f 81/105/81 82/107/81 13/108/81 11/106/81 
f 82/107/82 83/109/82 15/110/82 13/108/82 
f 83/109/83 84/111/83 17/112/83 15/110/83 
f 84/111/84 85/113/84 19/114/84 17/112/84 
f 85/113/85 86/115/85 21/116/85 19/114/85 
f 86/115/86 87/117/86 23/118/86 21/116/86 
f 87/117/87 88/119/87 25/120/87 23/118/87 
f 88/119/88 89/121/88 27/122/88 25/120/88 
f 89/121/89 90/123/89 29/124/89 27/122/89 
f 90/123/90 73/89/90 31/92/90 29/124/90 
f 91/125/91 92/126/91 18/127/91 20/128/91 
f 92/126/92 93/129/92 16/130/92 18/127/92 
f 93/129/93 94/131/93 14/132/93 16/130/93 
f 94/131/94 95/133/94 12/134/94 14/132/94 
f 95/133/95 96/135/95 10/136/95 12/134/95 
f 96/135/96 97/137/96 8/138/96 10/136/96 
f 97/137/97 98/139/97 6/140/97 8/138/97 
f 98/139/98 99/141/98 3/142/98 6/140/98 
f 99/141/99 100/143/99 4/144/99 3/142/99 
f 100/143/100 101/145/100 36/146/100 4/144/100 
f 101/145/101 102/147/101 34/148/101 36/146/101 
f 102/147/102 103/149/102 32/150/102 34/148/102 
f 103/149/103 104/151/103 30/152/103 32/150/103 
f 104/151/104 105/153/104 28/154/104 30/152/104 
f 105/153/105 106/155/105 26/156/105 28/154/105 
f 106/155/106 107/157/106 24/158/106 26/156/106 
f 107/157/107 108/159/107 22/160/107 24/158/107 
f 108/159/108 91/125/108 20/128/108 22/160/108 
f 109/161/109 110/162/109 63/163/109 61/164/109 
f 110/162/110 111/165/110 65/166/110 63/163/110 
f 111/165/111 112/167/111 67/168/111 65/166/111 
f 112/167/112 113/169/112 69/170/112 67/168/112 
f 113/169/113 114/171/113 71/172/113 69/170/113 
f 114/171/114 115/173/114 37/174/114 71/172/114 
f 115/173/115 116/175/115 38/176/115 37/174/115 
f 116/175/116 117/177/116 41/178/116 38/176/116 
f 117/177/117 118/179/117 43/180/117 41/178/117 
f 118/179/118 119/181/118 45/182/118 43/180/118 
f 119/181/119 120/183/119 47/184/119 45/182/119 
f 120/183/120 121/185/120 49/186/120 47/184/120 
f 121/185/121 122/187/121 51/188/121 49/186/121 
f 122/187/122 123/189/122 53/190/122 51/188/122 
f 123/189/123 124/191/123 55/192/123 53/190/123 
f 124/191/124 125/193/124 57/194/124 55/192/124 
f 125/193/125 126/195/125 59/196/125 57/194/125 
f 126/195/126 109/161/126 61/164/126 59/196/126 
f 127/197/127 128/198/127 58/199/127 60/200/127 
f 128/198/128 129/201/128 56/202/128 58/199/128 
f 129/201/129 130/203/129 54/204/129 56/202/129 
f 130/203/130 131/205/130 52/206/130 54/204/130 
f 131/205/131 132/207/131 50/208/131 52/206/131 
f 132/207/132 133/209/132 48/210/132 50/208/132 
f 133/209/133 134/211/133 46/212/133 48/210/133 
f 134/211/134 135/213/134 44/214/134 46/212/134 
f 135/213/135 136/215/135 42/216/135 44/214/135 
f 136/215/136 137/217/136 39/218/136 42/216/136 
f 137/217/137 138/219/137 40/220/137 39/218/137 
f 138/219/138 139/221/138 72/222/138 40/220/138 
f 139/221/139 140/223/139 70/224/139 72/222/139 
f 140/223/140 141/225/140 68/226/140 70/224/140 
f 141/225/141 142/227/141 66/228/141 68/226/141 
f 142/227/142 143/229/142 64/230/142 66/228/142 
f 143/229/143 144/231/143 62/232/143 64/230/143 
f 144/231/144 127/197/144 60/200/144 62/232/144 
# 108 polygons

