# 3ds Max Wavefront OBJ Exporter v0.97b - (c)2007 guruware
# File Created: 18.09.2015 02:34:16

mtllib M-8-9.mtl

#
# object M_8_9
#

v  -444.5630 176.9976 1956.0630
v  -449.5712 200.4120 1538.6375
v  -501.0755 180.1957 1538.8625
v  -496.7343 155.7930 1956.4270
v  -405.9045 209.4543 1955.4766
v  -410.9283 231.6137 1539.9143
v  -385.4015 249.2178 1954.7439
v  -389.8150 270.0037 1542.5428
v  -385.4848 291.4830 1953.9603
v  -388.7436 310.9317 1546.2134
v  -406.1110 331.1655 1953.2341
v  -407.8066 349.4717 1550.4960
v  -444.7840 363.5006 1952.6648
v  -444.7031 381.0009 1554.8856
v  -496.8513 384.6041 1952.3269
v  -495.0150 401.7274 1558.8577
v  -556.0495 391.9369 1952.2422
v  -552.7028 409.1351 1561.9135
v  -615.2528 384.6154 1952.4128
v  -610.7988 402.3043 1563.6731
v  -667.3346 363.5211 1952.8018
v  -662.2537 382.0520 1563.9081
v  -706.0273 331.1906 1953.3685
v  -700.8276 350.8459 1562.5983
v  -726.6716 291.5082 1954.0452
v  -721.8821 312.4861 1559.9076
v  -726.7678 249.2416 1954.7588
v  -722.9331 271.6103 1556.1730
v  -706.2753 209.4778 1955.4342
v  -703.9006 233.1202 1551.8540
v  -667.6304 177.0195 1955.9993
v  -667.0714 201.6131 1547.4753
v  -615.4730 155.8070 1956.3823
v  -616.8291 180.8701 1543.5575
v  -556.1068 148.4297 1956.5352
v  -559.1799 173.4169 1540.5696
v  -341.7611 449.4734 1955.3275
v  -341.1166 464.7794 1560.2117
v  -438.4835 505.0349 1567.0354
v  -442.0619 490.1552 1955.6522
v  -267.3425 387.1466 1954.7632
v  -269.6378 403.5831 1552.1815
v  -227.7947 310.7092 1954.0348
v  -232.7005 328.8376 1543.9188
v  -227.8791 229.4040 1953.2385
v  -234.7584 249.5831 1536.4299
v  -267.5491 153.0516 1952.4885
v  -275.5279 175.3894 1530.6362
v  -341.9757 90.8505 1951.8953
v  -350.0576 115.1861 1527.2540
v  -442.1611 50.2707 1951.5327
v  -449.3643 76.2015 1526.6942
v  -556.0430 36.1738 1951.4358
v  -561.5179 63.1237 1529.0182
v  -669.9342 50.2492 1951.6021
v  -673.0371 77.5526 1533.9347
v  -770.1409 90.8170 1951.9956
v  -770.4709 117.7906 1540.8374
v  -844.5879 153.0158 1952.5598
v  -842.0146 179.0084 1548.8831
v  -884.2737 229.3682 1953.2256
v  -878.9810 253.8031 1557.0953
v  -884.3765 310.6715 1953.9164
v  -876.9030 333.1092 1564.4841
v  -844.8553 387.1089 1954.5676
v  -836.0775 407.3329 1570.1753
v  -770.4663 449.4423 1955.1250
v  -761.4825 467.5327 1573.5078
v  -670.1879 490.1378 1955.5239
v  -662.1289 506.4826 1574.0885
v  -556.1289 504.2782 1955.7131
v  -549.9669 519.5095 1571.8469
v  -486.8711 403.7583 1954.0630
v  -556.0813 412.3298 1954.0630
v  -625.2914 403.7583 1954.0630
v  -686.1538 379.0778 1954.0577
v  -731.3275 341.2651 1954.0581
v  -755.3641 294.8809 1954.0596
v  -755.3641 245.5199 1954.0596
v  -731.3275 199.1358 1954.0581
v  -686.1539 161.3230 1954.0581
v  -625.2915 136.6425 1954.0559
v  -556.0814 128.0710 1954.0559
v  -486.8712 136.6425 1954.0559
v  -426.0088 161.3230 1954.0581
v  -380.8351 199.1358 1954.0581
v  -356.7985 245.5199 1954.0596
v  -356.7985 294.8809 1954.0596
v  -380.8351 341.2651 1954.0581
v  -426.0088 379.0778 1954.0577
v  -431.1835 184.6415 1536.6237
v  -491.4244 160.9922 1536.4873
v  -559.4348 153.0589 1538.0925
v  -627.0112 161.7986 1541.2441
v  -686.0035 186.1572 1545.5637
v  -729.2961 223.1966 1550.5267
v  -751.6674 268.4492 1555.5377
v  -750.4188 316.4571 1559.9902
v  -725.7011 361.4297 1563.3474
v  -680.4957 397.9427 1565.2053
v  -620.2549 421.5920 1565.3442
v  -552.2446 429.5253 1563.7388
v  -484.6679 420.7856 1560.5874
v  -425.6758 396.4271 1556.2654
v  -382.3832 359.3876 1551.3027
v  -360.0119 314.1350 1546.2935
v  -361.2604 266.1271 1541.8409
v  -385.9780 221.1545 1538.4822
v  -556.0813 483.8778 1954.0728
v  -452.0307 470.9914 1954.0728
v  -360.5301 433.8867 1954.0728
v  -292.6159 377.0391 1954.0706
v  -256.4796 307.3050 1954.0728
v  -256.4797 233.0956 1954.0728
v  -292.6159 163.3617 1954.0692
v  -360.5301 106.5140 1954.0679
v  -452.0307 69.4092 1954.0679
v  -556.0814 56.5230 1954.0679
v  -660.1320 69.4093 1954.0679
v  -751.6326 106.5140 1954.0679
v  -819.5468 163.3618 1954.0692
v  -855.6830 233.0957 1954.0728
v  -855.6829 307.3051 1954.0728
v  -819.5468 377.0391 1954.0706
v  -751.6325 433.8868 1954.0728
v  -660.1319 470.9914 1954.0728
v  -360.1511 449.3519 1558.9692
v  -448.8401 485.9725 1565.4607
v  -550.4349 499.1119 1570.1991
v  -652.6815 487.1849 1572.6123
v  -743.2476 451.6306 1572.4098
v  -811.2096 396.7369 1569.6140
v  -848.3699 329.1249 1564.5674
v  -850.2471 256.9499 1557.8737
v  -816.6144 188.9171 1550.3389
v  -751.5281 133.2321 1542.8761
v  -662.8390 96.6115 1536.3846
v  -561.2444 83.4722 1531.6464
v  -458.9976 95.3990 1529.2329
v  -368.4316 130.9536 1529.4355
v  -300.4695 185.8471 1532.2306
v  -263.3091 253.4589 1537.2815
v  -261.4321 325.6340 1543.9756
v  -295.0649 393.6670 1551.5060
# 144 vertices

vn -0.6370 0.7677 0.0699
vn -0.6329 0.7713 0.0680
vn -0.3326 0.9396 0.0806
vn -0.3383 0.9374 0.0823
vn -0.8612 0.5059 0.0500
vn -0.8582 0.5111 0.0479
vn -0.9830 0.1821 0.0249
vn -0.9818 0.1888 0.0228
vn -0.9863 -0.1652 -0.0020
vn -0.9875 -0.1577 -0.0040
vn -0.8694 -0.4934 -0.0271
vn -0.8735 -0.4860 -0.0287
vn -0.6461 -0.7618 -0.0469
vn -0.6535 -0.7554 -0.0482
vn -0.3442 -0.9370 -0.0595
vn -0.3554 -0.9328 -0.0595
vn 0.0004 -0.9980 -0.0633
vn -0.0150 -0.9980 -0.0620
vn 0.3442 -0.9371 -0.0576
vn 0.3258 -0.9437 -0.0567
vn 0.6460 -0.7620 -0.0443
vn 0.6278 -0.7772 -0.0436
vn 0.8690 -0.4941 -0.0250
vn 0.8556 -0.5171 -0.0246
vn 0.9861 -0.1663 -0.0019
vn 0.9811 -0.1933 -0.0015
vn 0.9832 0.1811 0.0228
vn 0.9875 0.1558 0.0232
vn 0.8616 0.5054 0.0463
vn 0.8724 0.4865 0.0468
vn 0.6369 0.7681 0.0667
vn 0.6496 0.7574 0.0659
vn 0.3381 0.9376 0.0807
vn 0.3492 0.9337 0.0788
vn -0.0002 0.9963 0.0859
vn 0.0079 0.9964 0.0843
vn 0.6458 0.7622 0.0444
vn 0.6535 0.7558 0.0411
vn 0.3552 0.9333 0.0527
vn 0.3434 0.9376 0.0556
vn 0.8699 0.4927 0.0233
vn 0.8741 0.4851 0.0232
vn 0.9862 0.1654 -0.0034
vn 0.9875 0.1578 -0.0001
vn 0.9829 -0.1818 -0.0307
vn 0.9817 -0.1886 -0.0272
vn 0.8610 -0.5054 -0.0562
vn 0.8580 -0.5108 -0.0528
vn 0.6370 -0.7671 -0.0762
vn 0.6325 -0.7711 -0.0732
vn 0.3385 -0.9368 -0.0885
vn 0.3321 -0.9393 -0.0857
vn 0.0015 -0.9959 -0.0905
vn -0.0076 -0.9959 -0.0903
vn -0.3377 -0.9375 -0.0834
vn -0.3498 -0.9329 -0.0858
vn -0.6370 -0.7677 -0.0696
vn -0.6503 -0.7562 -0.0720
vn -0.8614 -0.5055 -0.0499
vn -0.8724 -0.4859 -0.0523
vn -0.9831 -0.1812 -0.0267
vn -0.9874 -0.1553 -0.0293
vn -0.9861 0.1662 -0.0027
vn -0.9811 0.1937 -0.0055
vn -0.8692 0.4941 0.0197
vn -0.8555 0.5175 0.0169
vn -0.6463 0.7621 0.0385
vn -0.6277 0.7777 0.0358
vn -0.3446 0.9373 0.0518
vn -0.3256 0.9442 0.0492
vn -0.0008 0.9983 0.0579
vn 0.0153 0.9984 0.0553
vn -0.0114 -0.0610 0.9981
vn 0.0118 -0.0594 0.9982
vn 0.0279 -0.0425 0.9987
vn 0.0288 -0.0185 0.9994
vn 0.0133 0.0007 0.9999
vn -0.0120 0.0055 0.9999
vn -0.0359 -0.0075 0.9993
vn -0.0472 -0.0339 0.9983
vn -0.0398 -0.0630 0.9972
vn -0.0157 -0.0824 0.9965
vn 0.0155 -0.0832 0.9964
vn 0.0406 -0.0647 0.9971
vn 0.0487 -0.0349 0.9982
vn 0.0364 -0.0073 0.9993
vn 0.0103 0.0060 0.9999
vn -0.0170 -0.0003 0.9999
vn -0.0324 -0.0215 0.9992
vn -0.0295 -0.0460 0.9985
vn -0.0380 0.0665 -0.9971
vn -0.0393 0.0792 -0.9961
vn -0.0321 0.0909 -0.9953
vn -0.0184 0.0964 -0.9952
vn -0.0030 0.0929 -0.9957
vn 0.0083 0.0809 -0.9967
vn 0.0109 0.0644 -0.9979
vn 0.0037 0.0495 -0.9988
vn -0.0106 0.0421 -0.9991
vn -0.0260 0.0448 -0.9987
vn -0.0360 0.0560 -0.9978
vn -0.0365 0.0701 -0.9969
vn -0.0285 0.0802 -0.9964
vn -0.0171 0.0814 -0.9965
vn -0.0093 0.0744 -0.9972
vn -0.0098 0.0642 -0.9979
vn -0.0180 0.0573 -0.9982
vn -0.0294 0.0580 -0.9979
vn -0.0095 -0.0554 0.9984
vn -0.0235 -0.0436 0.9988
vn -0.0244 -0.0238 0.9994
vn -0.0096 -0.0070 0.9999
vn 0.0152 -0.0036 0.9999
vn 0.0384 -0.0176 0.9991
vn 0.0484 -0.0442 0.9979
vn 0.0396 -0.0720 0.9966
vn 0.0152 -0.0889 0.9959
vn -0.0147 -0.0877 0.9960
vn -0.0380 -0.0695 0.9969
vn -0.0462 -0.0421 0.9980
vn -0.0376 -0.0169 0.9992
vn -0.0175 -0.0031 0.9998
vn 0.0046 -0.0048 1.0000
vn 0.0191 -0.0193 0.9996
vn 0.0203 -0.0387 0.9990
vn 0.0085 -0.0533 0.9985
vn -0.0279 0.0739 -0.9969
vn -0.0330 0.0636 -0.9974
vn -0.0300 0.0504 -0.9983
vn -0.0188 0.0410 -0.9990
vn -0.0033 0.0402 -0.9992
vn 0.0102 0.0492 -0.9987
vn 0.0164 0.0649 -0.9978
vn 0.0131 0.0817 -0.9966
vn 0.0018 0.0942 -0.9956
vn -0.0135 0.0989 -0.9950
vn -0.0275 0.0952 -0.9951
vn -0.0362 0.0854 -0.9957
vn -0.0371 0.0736 -0.9966
vn -0.0312 0.0647 -0.9974
vn -0.0219 0.0621 -0.9978
vn -0.0147 0.0659 -0.9977
vn -0.0137 0.0727 -0.9973
vn -0.0194 0.0769 -0.9969
# 144 vertex normals

vt 0.9292 0.9118 0.0000
vt 0.5339 0.8625 0.0000
vt 0.5328 0.9527 0.0000
vt 0.9281 1.0060 0.0000
vt 0.9307 0.7676 0.0000
vt 0.5372 0.7230 0.0000
vt 0.9326 0.5906 0.0000
vt 0.5422 0.5511 0.0000
vt 0.9347 0.4023 0.0000
vt 0.5484 0.3675 0.0000
vt 0.9366 0.2253 0.0000
vt 0.5551 0.1943 0.0000
vt 0.9382 0.0810 0.0000
vt 0.5613 0.0526 0.0000
vt 0.9392 -0.0131 0.0000
vt 0.5664 -0.0408 0.0000
vt 0.2605 0.6690 0.0000
vt 0.4002 0.6690 0.0000
vt 0.4002 0.8138 0.0000
vt 0.2605 0.8138 0.0000
vt 0.5384 0.6690 0.0000
vt 0.5384 0.8138 0.0000
vt 0.5699 0.0459 0.0000
vt 0.5710 -0.0443 0.0000
vt 0.5666 0.1854 0.0000
vt 0.5615 0.3573 0.0000
vt 0.5553 0.5409 0.0000
vt 0.5487 0.7140 0.0000
vt 0.5425 0.8558 0.0000
vt 0.5373 0.9492 0.0000
vt 0.4970 0.4156 0.0000
vt 0.4970 0.5633 0.0000
vt 0.3707 0.5633 0.0000
vt 0.3707 0.4156 0.0000
vt 0.6189 0.4156 0.0000
vt 0.6189 0.5633 0.0000
vt 0.9304 -0.1331 0.0000
vt 0.5554 -0.1297 0.0000
vt 0.5619 -0.2703 0.0000
vt 0.9308 -0.2746 0.0000
vt 0.9299 0.0835 0.0000
vt 0.5478 0.0837 0.0000
vt 0.9292 0.3493 0.0000
vt 0.5400 0.3442 0.0000
vt 0.9285 0.6321 0.0000
vt 0.5329 0.6203 0.0000
vt 0.9278 0.8979 0.0000
vt 0.5275 0.8788 0.0000
vt 0.9273 1.1145 0.0000
vt 0.5243 1.0884 0.0000
vt 0.9269 1.2559 0.0000
vt 0.5237 1.2239 0.0000
vt 0.2647 0.1305 0.0000
vt 0.4509 0.1305 0.0000
vt 0.4509 0.3185 0.0000
vt 0.2647 0.3185 0.0000
vt 0.6398 0.1305 0.0000
vt 0.6398 0.3185 0.0000
vt 0.5371 1.0776 0.0000
vt 0.5305 1.2182 0.0000
vt 0.5447 0.8642 0.0000
vt 0.5525 0.6037 0.0000
vt 0.5595 0.3276 0.0000
vt 0.5650 0.0691 0.0000
vt 0.5682 -0.1405 0.0000
vt 0.5687 -0.2761 0.0000
vt 0.8033 0.8069 0.0000
vt 0.8035 0.6453 0.0000
vt 0.9412 0.6523 0.0000
vt 0.9411 0.8139 0.0000
vt 0.6652 0.8000 0.0000
vt 0.6654 0.6384 0.0000
vt 0.6054 0.7033 0.0000
vt 0.5000 0.7164 0.0000
vt 0.5001 0.6852 0.0000
vt 0.5902 0.6741 0.0000
vt 0.3946 0.7033 0.0000
vt 0.4099 0.6741 0.0000
vt 0.3019 0.6657 0.0000
vt 0.3306 0.6420 0.0000
vt 0.2331 0.6082 0.0000
vt 0.2716 0.5928 0.0000
vt 0.1965 0.5375 0.0000
vt 0.2402 0.5324 0.0000
vt 0.1965 0.4624 0.0000
vt 0.2400 0.4681 0.0000
vt 0.2331 0.3918 0.0000
vt 0.2713 0.4076 0.0000
vt 0.3019 0.3342 0.0000
vt 0.3301 0.3582 0.0000
vt 0.3946 0.2966 0.0000
vt 0.4096 0.3259 0.0000
vt 0.5000 0.2836 0.0000
vt 0.5000 0.3147 0.0000
vt 0.6054 0.2966 0.0000
vt 0.5904 0.3259 0.0000
vt 0.6981 0.3342 0.0000
vt 0.6699 0.3581 0.0000
vt 0.7669 0.3918 0.0000
vt 0.7287 0.4075 0.0000
vt 0.8035 0.4624 0.0000
vt 0.7600 0.4680 0.0000
vt 0.8035 0.5375 0.0000
vt 0.7598 0.5324 0.0000
vt 0.7669 0.6082 0.0000
vt 0.7284 0.5927 0.0000
vt 0.6981 0.6657 0.0000
vt 0.6695 0.6420 0.0000
vt 0.6088 0.8520 0.0000
vt 0.5619 0.8539 0.0000
vt 0.5543 0.8205 0.0000
vt 0.5945 0.8237 0.0000
vt 0.5089 0.8314 0.0000
vt 0.5091 0.7965 0.0000
vt 0.4562 0.7871 0.0000
vt 0.4642 0.7545 0.0000
vt 0.4103 0.7263 0.0000
vt 0.4250 0.6994 0.0000
vt 0.3766 0.6565 0.0000
vt 0.3963 0.6379 0.0000
vt 0.3591 0.5861 0.0000
vt 0.3815 0.5772 0.0000
vt 0.3601 0.5235 0.0000
vt 0.3823 0.5246 0.0000
vt 0.3794 0.4763 0.0000
vt 0.3987 0.4868 0.0000
vt 0.4146 0.4502 0.0000
vt 0.4288 0.4684 0.0000
vt 0.4615 0.4482 0.0000
vt 0.4689 0.4717 0.0000
vt 0.5145 0.4708 0.0000
vt 0.5141 0.4964 0.0000
vt 0.5671 0.5151 0.0000
vt 0.5591 0.5394 0.0000
vt 0.6131 0.5759 0.0000
vt 0.5983 0.5953 0.0000
vt 0.6468 0.6456 0.0000
vt 0.6270 0.6570 0.0000
vt 0.6642 0.7161 0.0000
vt 0.6418 0.7172 0.0000
vt 0.6633 0.7787 0.0000
vt 0.6410 0.7688 0.0000
vt 0.6440 0.8259 0.0000
vt 0.6246 0.8057 0.0000
vt 0.5000 0.8253 0.0000
vt 0.6585 0.8057 0.0000
vt 0.6737 0.8349 0.0000
vt 0.4999 0.8564 0.0000
vt 0.7978 0.7492 0.0000
vt 0.8264 0.7730 0.0000
vt 0.9013 0.6626 0.0000
vt 0.9398 0.6780 0.0000
vt 0.9563 0.5565 0.0000
vt 1.0000 0.5616 0.0000
vt 0.9563 0.4435 0.0000
vt 0.9999 0.4378 0.0000
vt 0.9013 0.3373 0.0000
vt 0.9395 0.3215 0.0000
vt 0.7978 0.2507 0.0000
vt 0.8261 0.2268 0.0000
vt 0.6585 0.1943 0.0000
vt 0.6735 0.1650 0.0000
vt 0.5000 0.1746 0.0000
vt 0.5001 0.1435 0.0000
vt 0.3415 0.1943 0.0000
vt 0.3266 0.1650 0.0000
vt 0.2022 0.2508 0.0000
vt 0.1740 0.2268 0.0000
vt 0.0987 0.3373 0.0000
vt 0.0606 0.3215 0.0000
vt 0.0437 0.4435 0.0000
vt 0.0002 0.4378 0.0000
vt 0.0437 0.5565 0.0000
vt -0.0000 0.5616 0.0000
vt 0.0987 0.6626 0.0000
vt 0.0602 0.6780 0.0000
vt 0.2022 0.7492 0.0000
vt 0.1735 0.7729 0.0000
vt 0.3415 0.8057 0.0000
vt 0.3262 0.8349 0.0000
vt 0.6641 0.5378 0.0000
vt 0.5950 0.4466 0.0000
vt 0.6031 0.4244 0.0000
vt 0.6789 0.5204 0.0000
vt 0.5159 0.3800 0.0000
vt 0.5163 0.3568 0.0000
vt 0.4362 0.3460 0.0000
vt 0.4289 0.3253 0.0000
vt 0.3657 0.3489 0.0000
vt 0.3515 0.3334 0.0000
vt 0.3127 0.3882 0.0000
vt 0.2934 0.3803 0.0000
vt 0.2838 0.4591 0.0000
vt 0.2616 0.4603 0.0000
vt 0.2823 0.5532 0.0000
vt 0.2600 0.5642 0.0000
vt 0.3085 0.6592 0.0000
vt 0.2888 0.6796 0.0000
vt 0.3592 0.7641 0.0000
vt 0.3445 0.7928 0.0000
vt 0.4283 0.8554 0.0000
vt 0.4204 0.8898 0.0000
vt 0.5075 0.9220 0.0000
vt 0.5073 0.9589 0.0000
vt 0.5871 0.9559 0.0000
vt 0.5946 0.9916 0.0000
vt 0.6577 0.9531 0.0000
vt 0.6720 0.9837 0.0000
vt 0.7106 0.9138 0.0000
vt 0.7300 0.9362 0.0000
vt 0.7396 0.8428 0.0000
vt 0.7618 0.8547 0.0000
vt 0.7410 0.7486 0.0000
vt 0.7634 0.7494 0.0000
vt 0.7148 0.6428 0.0000
vt 0.7346 0.6333 0.0000
# 216 texture coords

g M_8_9
usemtl 02___Default
s 4
f 1/1/1 2/2/2 3/3/3 4/4/4 
f 5/5/5 6/6/6 2/2/2 1/1/1 
f 7/7/7 8/8/8 6/6/6 5/5/5 
f 9/9/9 10/10/10 8/8/8 7/7/7 
f 11/11/11 12/12/12 10/10/10 9/9/9 
f 13/13/13 14/14/14 12/12/12 11/11/11 
f 15/15/15 16/16/16 14/14/14 13/13/13 
f 15/17/15 17/18/17 18/19/18 16/20/16 
f 17/18/17 19/21/19 20/22/20 18/19/18 
f 19/15/19 21/13/21 22/23/22 20/24/20 
f 21/13/21 23/11/23 24/25/24 22/23/22 
f 23/11/23 25/9/25 26/26/26 24/25/24 
f 25/9/25 27/7/27 28/27/28 26/26/26 
f 27/7/27 29/5/29 30/28/30 28/27/28 
f 29/5/29 31/1/31 32/29/32 30/28/30 
f 33/4/33 34/30/34 32/29/32 31/1/31 
f 35/31/35 36/32/36 34/33/34 33/34/33 
f 4/35/4 3/36/3 36/32/36 35/31/35 
f 37/37/37 38/38/38 39/39/39 40/40/40 
f 41/41/41 42/42/42 38/38/38 37/37/37 
f 41/41/41 43/43/43 44/44/44 42/42/42 
f 43/43/43 45/45/45 46/46/46 44/44/44 
f 45/45/45 47/47/47 48/48/48 46/46/46 
f 47/47/47 49/49/49 50/50/50 48/48/48 
f 49/49/49 51/51/51 52/52/52 50/50/50 
f 51/53/51 53/54/53 54/55/54 52/56/52 
f 55/57/55 56/58/56 54/55/54 53/54/53 
f 57/49/57 58/59/58 56/60/56 55/51/55 
f 59/47/59 60/61/60 58/59/58 57/49/57 
f 61/45/61 62/62/62 60/61/60 59/47/59 
f 63/43/63 64/63/64 62/62/62 61/45/61 
f 65/41/65 66/64/66 64/63/64 63/43/63 
f 67/37/67 68/65/68 66/64/66 65/41/65 
f 69/40/69 70/66/70 68/65/68 67/37/67 
f 71/67/71 72/68/72 70/69/70 69/70/69 
f 40/71/40 39/72/39 72/68/72 71/67/71 
s off
f 73/73/73 74/74/73 17/75/73 15/76/73 
f 74/74/74 75/77/74 19/78/74 17/75/74 
f 75/77/75 76/79/75 21/80/75 19/78/75 
f 76/79/76 77/81/76 23/82/76 21/80/76 
f 77/81/77 78/83/77 25/84/77 23/82/77 
f 78/83/78 79/85/78 27/86/78 25/84/78 
f 79/85/79 80/87/79 29/88/79 27/86/79 
f 80/87/80 81/89/80 31/90/80 29/88/80 
f 81/89/81 82/91/81 33/92/81 31/90/81 
f 82/91/82 83/93/82 35/94/82 33/92/82 
f 83/93/83 84/95/83 4/96/83 35/94/83 
f 84/95/84 85/97/84 1/98/84 4/96/84 
f 85/97/85 86/99/85 5/100/85 1/98/85 
f 86/99/86 87/101/86 7/102/86 5/100/86 
f 87/101/87 88/103/87 9/104/87 7/102/87 
f 88/103/88 89/105/88 11/106/88 9/104/88 
f 89/105/89 90/107/89 13/108/89 11/106/89 
f 90/107/90 73/73/90 15/76/90 13/108/90 
f 91/109/91 92/110/91 3/111/91 2/112/91 
f 92/110/92 93/113/92 36/114/92 3/111/92 
f 93/113/93 94/115/93 34/116/93 36/114/93 
f 94/115/94 95/117/94 32/118/94 34/116/94 
f 95/117/95 96/119/95 30/120/95 32/118/95 
f 96/119/96 97/121/96 28/122/96 30/120/96 
f 97/121/97 98/123/97 26/124/97 28/122/97 
f 98/123/98 99/125/98 24/126/98 26/124/98 
f 99/125/99 100/127/99 22/128/99 24/126/99 
f 100/127/100 101/129/100 20/130/100 22/128/100 
f 101/129/101 102/131/101 18/132/101 20/130/101 
f 102/131/102 103/133/102 16/134/102 18/132/102 
f 103/133/103 104/135/103 14/136/103 16/134/103 
f 104/135/104 105/137/104 12/138/104 14/136/104 
f 105/137/105 106/139/105 10/140/105 12/138/105 
f 106/139/106 107/141/106 8/142/106 10/140/106 
f 107/141/107 108/143/107 6/144/107 8/142/107 
f 108/143/108 91/109/108 2/112/108 6/144/108 
f 109/145/109 110/146/109 40/147/109 71/148/109 
f 110/146/110 111/149/110 37/150/110 40/147/110 
f 111/149/111 112/151/111 41/152/111 37/150/111 
f 112/151/112 113/153/112 43/154/112 41/152/112 
f 113/153/113 114/155/113 45/156/113 43/154/113 
f 114/155/114 115/157/114 47/158/114 45/156/114 
f 115/157/115 116/159/115 49/160/115 47/158/115 
f 116/159/116 117/161/116 51/162/116 49/160/116 
f 117/161/117 118/163/117 53/164/117 51/162/117 
f 118/163/118 119/165/118 55/166/118 53/164/118 
f 119/165/119 120/167/119 57/168/119 55/166/119 
f 120/167/120 121/169/120 59/170/120 57/168/120 
f 121/169/121 122/171/121 61/172/121 59/170/121 
f 122/171/122 123/173/122 63/174/122 61/172/122 
f 123/173/123 124/175/123 65/176/123 63/174/123 
f 124/175/124 125/177/124 67/178/124 65/176/124 
f 125/177/125 126/179/125 69/180/125 67/178/125 
f 126/179/126 109/145/126 71/148/126 69/180/126 
f 127/181/127 128/182/127 39/183/127 38/184/127 
f 128/182/128 129/185/128 72/186/128 39/183/128 
f 129/185/129 130/187/129 70/188/129 72/186/129 
f 130/187/130 131/189/130 68/190/130 70/188/130 
f 131/189/131 132/191/131 66/192/131 68/190/131 
f 132/191/132 133/193/132 64/194/132 66/192/132 
f 133/193/133 134/195/133 62/196/133 64/194/133 
f 134/195/134 135/197/134 60/198/134 62/196/134 
f 135/197/135 136/199/135 58/200/135 60/198/135 
f 136/199/136 137/201/136 56/202/136 58/200/136 
f 137/201/137 138/203/137 54/204/137 56/202/137 
f 138/203/138 139/205/138 52/206/138 54/204/138 
f 139/205/139 140/207/139 50/208/139 52/206/139 
f 140/207/140 141/209/140 48/210/140 50/208/140 
f 141/209/141 142/211/141 46/212/141 48/210/141 
f 142/211/142 143/213/142 44/214/142 46/212/142 
f 143/213/143 144/215/143 42/216/143 44/214/143 
f 144/215/144 127/181/144 38/184/144 42/216/144 
# 108 polygons

