# 3ds Max Wavefront OBJ Exporter v0.97b - (c)2007 guruware
# File Created: 18.09.2015 13:18:26

mtllib M-x-Start.mtl

#
# object M_x_Start
#

v  -444.1747 501.5664 -123.6785
v  -405.5980 468.9376 -122.5499
v  -413.0737 404.8850 340.1337
v  -444.5826 433.8641 358.7207
v  -385.2762 429.0684 -121.1401
v  -398.5678 369.8828 321.5908
v  -385.5450 386.7833 -119.5828
v  -402.8358 332.9963 305.3429
v  -406.2846 347.1372 -118.0438
v  -425.4532 298.6545 293.3762
v  -444.9848 314.8474 -116.7115
v  -463.7350 271.0443 287.1534
v  -497.0288 293.7732 -115.7728
v  -513.0172 253.5331 287.4174
v  -556.1871 286.4626 -115.3799
v  -567.2966 248.2129 294.0920
v  -615.3328 293.8107 -115.6144
v  -620.0465 255.6759 306.3232
v  -667.3357 314.9220 -116.4634
v  -665.0011 275.0110 322.6218
v  -705.9695 347.2381 -117.8115
v  -696.8098 303.9385 341.0486
v  -726.6406 386.8920 -119.4569
v  -711.6049 339.0446 359.4333
v  -726.8580 429.1738 -121.1531
v  -707.4837 376.1229 375.5941
v  -706.4952 469.0379 -122.6665
v  -684.8278 410.6542 387.5850
v  -667.8723 501.6537 -123.8225
v  -646.3470 438.3806 393.9333
v  -615.5833 522.9976 -124.5194
v  -596.7744 455.8872 393.8455
v  -555.9911 530.4030 -124.7179
v  -542.2340 461.0691 387.3075
v  -496.4186 522.9442 -124.4243
v  -489.3925 453.3864 375.1071
v  -227.7429 368.1387 -118.1481
v  -228.0523 449.4096 -116.7006
v  -247.3825 382.4945 315.5756
v  -255.6616 309.3629 287.3331
v  -267.9190 525.6379 -115.4027
v  -276.3296 452.2994 347.1074
v  -342.4278 587.6514 -114.3589
v  -339.0426 510.2654 378.1519
v  -442.5358 628.0444 -113.6591
v  -427.8542 549.3313 404.9711
v  -556.2068 642.0320 -113.3757
v  -531.9159 564.8126 424.3311
v  -669.8526 627.9729 -113.5575
v  -638.6318 554.9406 433.8921
v  -769.9031 587.5332 -114.2220
v  -735.2182 520.9912 432.4885
v  -844.3531 525.4982 -115.3418
v  -810.1638 467.0643 420.2610
v  -884.1637 449.2559 -116.8259
v  -854.5134 399.5977 398.6488
v  -884.3934 367.9722 -118.5059
v  -862.8929 326.6437 370.2335
v  -844.9016 291.5015 -120.1450
v  -834.1820 256.9597 338.4529
v  -770.4415 229.1446 -121.4808
v  -771.7343 198.9780 307.1898
v  -670.0568 188.4611 -122.2915
v  -683.0601 159.7600 280.2836
v  -555.9074 174.3542 -122.4521
v  -578.9284 144.0821 261.0192
v  -441.7798 188.5217 -121.9667
v  -471.9926 153.8198 251.6954
v  -341.4665 229.2649 -120.9585
v  -375.1693 187.7446 253.3594
v  -267.1205 291.6617 -119.6206
v  -300.0592 241.7465 265.7405
v  -556.0813 550.4658 -119.2061
v  -486.8712 541.8943 -119.2061
v  -426.0088 517.2138 -119.2061
v  -380.8351 479.4011 -119.2061
v  -356.7987 433.0169 -119.2061
v  -356.7987 383.6559 -119.2061
v  -380.8351 337.2718 -119.2061
v  -426.0089 299.4591 -119.2061
v  -486.8712 274.7786 -119.2061
v  -556.0814 266.2072 -119.2061
v  -625.2915 274.7787 -119.2061
v  -686.1538 299.4592 -119.2061
v  -731.3275 337.2719 -119.2061
v  -755.3639 383.6560 -119.2061
v  -755.3639 433.0170 -119.2061
v  -731.3275 479.4011 -119.2061
v  -686.1538 517.2138 -119.2061
v  -625.2914 541.8943 -119.2061
v  -540.7345 481.1115 392.7661
v  -605.1453 475.0930 399.1876
v  -663.5216 454.5370 398.6478
v  -708.8218 421.9233 391.2152
v  -735.5831 381.1854 377.7827
v  -740.5773 337.2370 359.9725
v  -723.2019 295.3787 339.9324
v  -685.5524 260.6596 320.0804
v  -632.1705 237.2667 302.8087
v  -569.4949 228.0222 290.2028
v  -505.0839 234.0411 283.7817
v  -446.7076 254.5969 284.3202
v  -401.4070 287.2107 291.7543
v  -374.6463 327.9487 305.1853
v  -369.6521 371.8970 322.9956
v  -387.0275 413.7551 343.0361
v  -424.6769 448.4745 362.8885
v  -478.0583 471.8671 380.1605
v  -452.0307 609.1274 -119.2061
v  -556.0813 622.0137 -119.2061
v  -660.1318 609.1274 -119.2061
v  -751.6323 572.0228 -119.2061
v  -819.5465 515.1751 -119.2061
v  -855.6829 445.4411 -119.2061
v  -855.6830 371.2318 -119.2061
v  -819.5466 301.4979 -119.2061
v  -751.6324 244.6502 -119.2061
v  -660.1320 207.5456 -119.2061
v  -556.0814 194.6592 -119.2061
v  -452.0308 207.5455 -119.2061
v  -360.5303 244.6502 -119.2061
v  -292.6161 301.4978 -119.2061
v  -256.4797 371.2318 -119.2061
v  -256.4796 445.4411 -119.2061
v  -292.6160 515.1750 -119.2061
v  -360.5302 572.0227 -119.2061
v  -630.3302 535.7651 428.2312
v  -533.4958 544.8140 418.5781
v  -439.2683 530.9156 399.6244
v  -359.0142 495.7472 373.6589
v  -302.4120 443.5504 343.8121
v  -276.2897 380.6208 313.6838
v  -283.7974 314.5486 286.9077
v  -324.0306 253.3033 266.7146
v  -392.1359 204.2720 255.5383
v  -479.8983 173.3681 254.7280
v  -576.7336 164.3195 264.3820
v  -670.9598 178.2176 283.3350
v  -751.2144 213.3859 309.3008
v  -807.8171 265.5828 339.1478
v  -833.9392 328.5123 369.2760
v  -826.4309 394.5844 396.0515
v  -786.1981 455.8301 416.2445
v  -718.0930 504.8618 427.4207
# 144 vertices

vn -0.6270 -0.7630 -0.1572
vn -0.8530 -0.5084 -0.1184
vn -0.8928 -0.4402 -0.0954
vn -0.6804 -0.7195 -0.1392
vn -0.9795 -0.1890 -0.0697
vn -0.9935 -0.1053 -0.0439
vn -0.9874 0.1572 -0.0158
vn -0.9705 0.2409 0.0096
vn -0.8730 0.4863 0.0375
vn -0.8294 0.5554 0.0594
vn -0.6497 0.7556 0.0835
vn -0.5888 0.8020 0.1005
vn -0.3461 0.9310 0.1156
vn -0.2762 0.9526 0.1277
vn -0.0003 0.9917 0.1287
vn 0.0722 0.9880 0.1363
vn 0.3457 0.9306 0.1200
vn 0.4138 0.9019 0.1237
vn 0.6498 0.7547 0.0902
vn 0.7043 0.7041 0.0907
vn 0.8736 0.4847 0.0435
vn 0.9060 0.4212 0.0420
vn 0.9878 0.1549 -0.0130
vn 0.9958 0.0908 -0.0147
vn 0.9790 -0.1912 -0.0709
vn 0.9667 -0.2456 -0.0715
vn 0.8517 -0.5095 -0.1225
vn 0.8265 -0.5498 -0.1213
vn 0.6259 -0.7629 -0.1619
vn 0.5928 -0.7895 -0.1588
vn 0.3309 -0.9252 -0.1857
vn 0.2910 -0.9396 -0.1804
vn 0.0001 -0.9813 -0.1926
vn -0.0476 -0.9817 -0.1843
vn -0.3311 -0.9257 -0.1827
vn -0.3854 -0.9070 -0.1700
vn 0.9873 -0.1573 0.0237
vn 0.9792 0.1888 0.0741
vn 0.9926 0.0952 0.0755
vn 0.9679 -0.2500 0.0250
vn 0.8527 0.5084 0.1203
vn 0.8941 0.4307 0.1231
vn 0.6264 0.7633 0.1582
vn 0.6834 0.7117 0.1630
vn 0.3301 0.9258 0.1840
vn 0.3892 0.9011 0.1910
vn -0.0013 0.9808 0.1951
vn 0.0514 0.9777 0.2038
vn -0.3319 0.9241 0.1896
vn -0.2879 0.9366 0.1998
vn -0.6264 0.7614 0.1669
vn -0.5908 0.7867 0.1790
vn -0.8517 0.5080 0.1283
vn -0.8254 0.5462 0.1430
vn -0.9788 0.1900 0.0769
vn -0.9660 0.2406 0.0947
vn -0.9876 -0.1559 0.0187
vn -0.9945 -0.0972 0.0391
vn -0.8733 -0.4857 -0.0380
vn -0.9036 -0.4280 -0.0169
vn -0.6493 -0.7559 -0.0841
vn -0.7009 -0.7103 -0.0649
vn -0.3446 -0.9320 -0.1122
vn -0.4105 -0.9067 -0.0970
vn 0.0021 -0.9930 -0.1184
vn -0.0701 -0.9917 -0.1077
vn 0.3480 -0.9318 -0.1030
vn 0.2764 -0.9562 -0.0963
vn 0.6510 -0.7558 -0.0703
vn 0.5869 -0.8069 -0.0663
vn 0.8734 -0.4863 -0.0261
vn 0.8265 -0.5624 -0.0239
vn 0.0348 0.1838 -0.9823
vn 0.0897 0.1434 -0.9856
vn 0.1103 0.0809 -0.9906
vn 0.0905 0.0213 -0.9957
vn 0.0406 -0.0120 -0.9991
vn -0.0167 -0.0065 -0.9998
vn -0.0553 0.0332 -0.9979
vn -0.0579 0.0860 -0.9946
vn -0.0249 0.1243 -0.9919
vn 0.0243 0.1272 -0.9916
vn 0.0609 0.0925 -0.9938
vn 0.0619 0.0385 -0.9973
vn 0.0229 -0.0051 -0.9997
vn -0.0386 -0.0131 -0.9992
vn -0.0928 0.0213 -0.9955
vn -0.1138 0.0837 -0.9900
vn -0.0913 0.1472 -0.9849
vn -0.0343 0.1856 -0.9820
vn 0.1295 -0.1728 0.9764
vn 0.0754 -0.1584 0.9845
vn 0.0258 -0.1828 0.9828
vn 0.0047 -0.2329 0.9725
vn 0.0227 -0.2841 0.9585
vn 0.0730 -0.3109 0.9476
vn 0.1330 -0.2974 0.9454
vn 0.1737 -0.2455 0.9537
vn 0.1724 -0.1755 0.9693
vn 0.1248 -0.1185 0.9851
vn 0.0487 -0.1018 0.9936
vn -0.0232 -0.1351 0.9906
vn -0.0588 -0.2050 0.9770
vn -0.0421 -0.2804 0.9590
vn 0.0184 -0.3277 0.9446
vn 0.0934 -0.3273 0.9403
vn 0.1482 -0.2837 0.9474
vn 0.1603 -0.2218 0.9618
vn 0.0331 0.1956 -0.9801
vn -0.0339 0.1972 -0.9798
vn -0.0900 0.1621 -0.9827
vn -0.1149 0.1032 -0.9880
vn -0.1000 0.0436 -0.9940
vn -0.0537 0.0076 -0.9985
vn 0.0015 0.0084 -1.0000
vn 0.0392 0.0407 -0.9984
vn 0.0436 0.0829 -0.9956
vn 0.0185 0.1090 -0.9939
vn -0.0161 0.1037 -0.9945
vn -0.0355 0.0706 -0.9969
vn -0.0252 0.0290 -0.9993
vn 0.0127 0.0025 -0.9999
vn 0.0621 0.0066 -0.9980
vn 0.1013 0.0433 -0.9939
vn 0.1124 0.1007 -0.9885
vn 0.0877 0.1586 -0.9834
vn 0.1167 -0.1856 0.9757
vn 0.1380 -0.2284 0.9637
vn 0.1215 -0.2811 0.9520
vn 0.0674 -0.3161 0.9463
vn -0.0040 -0.3112 0.9503
vn -0.0608 -0.2625 0.9630
vn -0.0757 -0.1881 0.9792
vn -0.0405 -0.1197 0.9920
vn 0.0299 -0.0865 0.9958
vn 0.1054 -0.1011 0.9893
vn 0.1553 -0.1539 0.9758
vn 0.1632 -0.2199 0.9618
vn 0.1324 -0.2709 0.9534
vn 0.0825 -0.2888 0.9538
vn 0.0386 -0.2713 0.9617
vn 0.0207 -0.2314 0.9726
vn 0.0355 -0.1913 0.9809
vn 0.0744 -0.1720 0.9823
# 144 vertex normals

vt 0.1358 0.1101 0.0000
vt 0.1489 0.0505 0.0000
vt 0.7685 0.0491 0.0000
vt 0.7821 0.1070 0.0000
vt 0.1650 -0.0224 0.0000
vt 0.7571 -0.0198 0.0000
vt 0.1821 -0.0996 0.0000
vt 0.7493 -0.0916 0.0000
vt 0.1982 -0.1720 0.0000
vt 0.7462 -0.1577 0.0000
vt 0.2115 -0.2310 0.0000
vt 0.7480 -0.2099 0.0000
vt 0.0807 1.5424 0.0000
vt 0.0819 1.4740 0.0000
vt 0.6116 1.4530 0.0000
vt 0.6113 1.5178 0.0000
vt 0.0824 1.3963 0.0000
vt 0.6204 1.3817 0.0000
vt 0.0821 1.3186 0.0000
vt 0.6365 1.3124 0.0000
vt 0.0810 1.2503 0.0000
vt 0.6579 1.2533 0.0000
vt 0.7152 0.3031 0.0000
vt 0.7262 0.3626 0.0000
vt 0.1180 0.3745 0.0000
vt 0.1337 0.3174 0.0000
vt 0.7396 0.4356 0.0000
vt 0.1041 0.4431 0.0000
vt 0.7539 0.5134 0.0000
vt 0.0937 0.5149 0.0000
vt 0.7672 0.5868 0.0000
vt 0.0880 0.5811 0.0000
vt 0.7780 0.6469 0.0000
vt 0.0877 0.6337 0.0000
vt 0.0968 0.9899 0.0000
vt 0.0894 0.9108 0.0000
vt 0.7822 0.8958 0.0000
vt 0.7875 0.9684 0.0000
vt 0.0877 0.8352 0.0000
vt 0.7730 0.8287 0.0000
vt 0.0919 0.7726 0.0000
vt 0.7610 0.7752 0.0000
vt 0.8463 -0.0260 0.0000
vt 0.8366 0.0528 0.0000
vt 0.1903 0.0452 0.0000
vt 0.1772 -0.0261 0.0000
vt 0.7184 -0.2057 0.0000
vt 0.7508 -0.0573 0.0000
vt 0.1687 -0.0508 0.0000
vt 0.1734 -0.1927 0.0000
vt 0.7784 0.0802 0.0000
vt 0.1558 0.0846 0.0000
vt 0.7978 0.1904 0.0000
vt 0.1360 0.1969 0.0000
vt 0.7809 0.1867 0.0000
vt 0.8021 0.3368 0.0000
vt 0.1049 0.3486 0.0000
vt 0.1182 0.2072 0.0000
vt 0.8133 0.4771 0.0000
vt 0.0918 0.4833 0.0000
vt 0.8132 0.5908 0.0000
vt 0.0807 0.5951 0.0000
vt 0.1773 -0.1518 0.0000
vt 0.1772 -0.3034 0.0000
vt 0.9073 -0.3225 0.0000
vt 0.9099 -0.1807 0.0000
vt 0.1860 -0.4446 0.0000
vt 0.8993 -0.4571 0.0000
vt 0.2027 -0.5585 0.0000
vt 0.8868 -0.5684 0.0000
vt 0.7652 0.7208 0.0000
vt 0.7496 0.8720 0.0000
vt 0.1023 0.8736 0.0000
vt 0.0807 0.7334 0.0000
vt 0.7324 1.0123 0.0000
vt 0.1265 1.0064 0.0000
vt 0.7154 1.1246 0.0000
vt 0.1503 1.1157 0.0000
vt 0.6996 0.8543 0.0000
vt 0.5677 0.8554 0.0000
vt 0.5848 0.3265 0.0000
vt 0.7013 0.2911 0.0000
vt 0.4177 0.8556 0.0000
vt 0.4480 0.3518 0.0000
vt 0.2678 0.8550 0.0000
vt 0.3075 0.3640 0.0000
vt 0.1360 0.8536 0.0000
vt 0.1803 0.3619 0.0000
vt 0.6551 -0.4640 0.0000
vt 0.6851 -0.3470 0.0000
vt 0.1692 -0.3240 0.0000
vt 0.1567 -0.4291 0.0000
vt 0.2841 0.5887 0.0000
vt 0.2999 0.4991 0.0000
vt 0.3348 0.5115 0.0000
vt 0.3210 0.5886 0.0000
vt 0.3454 0.4203 0.0000
vt 0.3742 0.4439 0.0000
vt 0.4150 0.3619 0.0000
vt 0.4343 0.3939 0.0000
vt 0.5005 0.3308 0.0000
vt 0.5078 0.3676 0.0000
vt 0.5915 0.3308 0.0000
vt 0.5857 0.3680 0.0000
vt 0.6770 0.3619 0.0000
vt 0.6588 0.3948 0.0000
vt 0.7467 0.4203 0.0000
vt 0.7183 0.4449 0.0000
vt 0.7922 0.4991 0.0000
vt 0.7572 0.5123 0.0000
vt 0.8080 0.5887 0.0000
vt 0.7706 0.5889 0.0000
vt 0.7922 0.6783 0.0000
vt 0.7571 0.6654 0.0000
vt 0.7467 0.7571 0.0000
vt 0.7182 0.7327 0.0000
vt 0.6770 0.8156 0.0000
vt 0.6586 0.7827 0.0000
vt 0.5915 0.8467 0.0000
vt 0.5855 0.8095 0.0000
vt 0.5005 0.8467 0.0000
vt 0.5076 0.8098 0.0000
vt 0.4150 0.8156 0.0000
vt 0.4341 0.7834 0.0000
vt 0.3454 0.7571 0.0000
vt 0.3740 0.7334 0.0000
vt 0.2999 0.6783 0.0000
vt 0.3347 0.6657 0.0000
vt 0.6614 0.7534 0.0000
vt 0.5817 0.7805 0.0000
vt 0.5757 0.7439 0.0000
vt 0.6432 0.7212 0.0000
vt 0.4972 0.7800 0.0000
vt 0.5039 0.7435 0.0000
vt 0.4180 0.7521 0.0000
vt 0.4366 0.7198 0.0000
vt 0.3536 0.7002 0.0000
vt 0.3821 0.6757 0.0000
vt 0.3119 0.6305 0.0000
vt 0.3470 0.6168 0.0000
vt 0.2978 0.5514 0.0000
vt 0.3355 0.5504 0.0000
vt 0.3132 0.4724 0.0000
vt 0.3487 0.4843 0.0000
vt 0.3560 0.4031 0.0000
vt 0.3851 0.4266 0.0000
vt 0.4211 0.3519 0.0000
vt 0.4402 0.3840 0.0000
vt 0.5008 0.3248 0.0000
vt 0.5075 0.3616 0.0000
vt 0.5853 0.3253 0.0000
vt 0.5790 0.3622 0.0000
vt 0.6645 0.3531 0.0000
vt 0.6460 0.3859 0.0000
vt 0.7289 0.4051 0.0000
vt 0.7003 0.4296 0.0000
vt 0.7706 0.4748 0.0000
vt 0.7354 0.4881 0.0000
vt 0.7846 0.5539 0.0000
vt 0.7472 0.5542 0.0000
vt 0.7693 0.6329 0.0000
vt 0.7343 0.6202 0.0000
vt 0.7265 0.7022 0.0000
vt 0.6983 0.6782 0.0000
vt 0.1166 0.3686 0.0000
vt 0.0928 0.5033 0.0000
vt 0.0559 0.5035 0.0000
vt 0.0817 0.3563 0.0000
vt 0.1166 0.6380 0.0000
vt 0.0818 0.6506 0.0000
vt 0.1849 0.7565 0.0000
vt 0.1564 0.7801 0.0000
vt 0.2897 0.8444 0.0000
vt 0.2707 0.8765 0.0000
vt 0.4182 0.8911 0.0000
vt 0.4112 0.9280 0.0000
vt 0.5550 0.8911 0.0000
vt 0.5610 0.9283 0.0000
vt 0.6835 0.8444 0.0000
vt 0.7019 0.8772 0.0000
vt 0.7883 0.7565 0.0000
vt 0.8169 0.7808 0.0000
vt 0.8567 0.6380 0.0000
vt 0.8918 0.6509 0.0000
vt 0.8804 0.5033 0.0000
vt 0.9178 0.5031 0.0000
vt 0.8567 0.3686 0.0000
vt 0.8917 0.3554 0.0000
vt 0.7883 0.2502 0.0000
vt 0.8166 0.2255 0.0000
vt 0.6835 0.1623 0.0000
vt 0.7016 0.1293 0.0000
vt 0.5550 0.1155 0.0000
vt 0.5607 0.0783 0.0000
vt 0.4182 0.1155 0.0000
vt 0.4109 0.0787 0.0000
vt 0.2897 0.1623 0.0000
vt 0.2704 0.1303 0.0000
vt 0.1849 0.2502 0.0000
vt 0.1561 0.2268 0.0000
vt 0.5455 0.8598 0.0000
vt 0.6653 0.8192 0.0000
vt 0.6835 0.8513 0.0000
vt 0.5516 0.8963 0.0000
vt 0.7633 0.7421 0.0000
vt 0.7915 0.7660 0.0000
vt 0.8276 0.6380 0.0000
vt 0.8627 0.6505 0.0000
vt 0.8506 0.5193 0.0000
vt 0.8880 0.5187 0.0000
vt 0.8295 0.4003 0.0000
vt 0.8646 0.3868 0.0000
vt 0.7668 0.2955 0.0000
vt 0.7952 0.2708 0.0000
vt 0.6701 0.2174 0.0000
vt 0.6884 0.1846 0.0000
vt 0.5510 0.1755 0.0000
vt 0.5571 0.1385 0.0000
vt 0.4239 0.1749 0.0000
vt 0.4171 0.1380 0.0000
vt 0.3041 0.2155 0.0000
vt 0.2851 0.1833 0.0000
vt 0.2062 0.2925 0.0000
vt 0.1771 0.2690 0.0000
vt 0.1418 0.3967 0.0000
vt 0.1062 0.3847 0.0000
vt 0.1188 0.5154 0.0000
vt 0.0812 0.5163 0.0000
vt 0.1399 0.6344 0.0000
vt 0.1048 0.6479 0.0000
vt 0.2026 0.7392 0.0000
vt 0.1742 0.7636 0.0000
vt 0.2994 0.8173 0.0000
vt 0.2808 0.8496 0.0000
vt 0.4185 0.8592 0.0000
vt 0.4118 0.8956 0.0000
# 236 texture coords

g M_x_Start
usemtl 02___Default
s 1
f 1/1/1 2/2/2 3/3/3 4/4/4 
f 2/2/2 5/5/5 6/6/6 3/3/3 
f 5/5/5 7/7/7 8/8/8 6/6/6 
f 7/7/7 9/9/9 10/10/10 8/8/8 
f 9/9/9 11/11/11 12/12/12 10/10/10 
f 11/13/11 13/14/13 14/15/14 12/16/12 
f 13/14/13 15/17/15 16/18/16 14/15/14 
f 15/17/15 17/19/17 18/20/18 16/18/16 
f 17/19/17 19/21/19 20/22/20 18/20/18 
f 19/23/19 21/24/21 22/25/22 20/26/20 
f 21/24/21 23/27/23 24/28/24 22/25/22 
f 23/27/23 25/29/25 26/30/26 24/28/24 
f 25/29/25 27/31/27 28/32/28 26/30/26 
f 27/31/27 29/33/29 30/34/30 28/32/28 
f 29/35/29 31/36/31 32/37/32 30/38/30 
f 31/36/31 33/39/33 34/40/34 32/37/32 
f 33/39/33 35/41/35 36/42/36 34/40/34 
f 35/43/35 1/44/1 4/45/4 36/46/36 
f 37/47/37 38/48/38 39/49/39 40/50/40 
f 38/48/38 41/51/41 42/52/42 39/49/39 
f 41/51/41 43/53/43 44/54/44 42/52/42 
f 43/55/43 45/56/45 46/57/46 44/58/44 
f 45/56/45 47/59/47 48/60/48 46/57/46 
f 47/59/47 49/61/49 50/62/50 48/60/48 
f 49/63/49 51/64/51 52/65/52 50/66/50 
f 51/64/51 53/67/53 54/68/54 52/65/52 
f 53/67/53 55/69/55 56/70/56 54/68/54 
f 55/71/55 57/72/57 58/73/58 56/74/56 
f 57/72/57 59/75/59 60/76/60 58/73/58 
f 59/75/59 61/77/61 62/78/62 60/76/60 
f 61/79/61 63/80/63 64/81/64 62/82/62 
f 63/80/63 65/83/65 66/84/66 64/81/64 
f 65/83/65 67/85/67 68/86/68 66/84/66 
f 67/85/67 69/87/69 70/88/70 68/86/68 
f 69/89/69 71/90/71 72/91/72 70/92/70 
f 71/90/71 37/47/37 40/50/40 72/91/72 
s off
f 73/93/73 74/94/73 35/95/73 33/96/73 
f 74/94/74 75/97/74 1/98/74 35/95/74 
f 75/97/75 76/99/75 2/100/75 1/98/75 
f 76/99/76 77/101/76 5/102/76 2/100/76 
f 77/101/77 78/103/77 7/104/77 5/102/77 
f 78/103/78 79/105/78 9/106/78 7/104/78 
f 79/105/79 80/107/79 11/108/79 9/106/79 
f 80/107/80 81/109/80 13/110/80 11/108/80 
f 81/109/81 82/111/81 15/112/81 13/110/81 
f 82/111/82 83/113/82 17/114/82 15/112/82 
f 83/113/83 84/115/83 19/116/83 17/114/83 
f 84/115/84 85/117/84 21/118/84 19/116/84 
f 85/117/85 86/119/85 23/120/85 21/118/85 
f 86/119/86 87/121/86 25/122/86 23/120/86 
f 87/121/87 88/123/87 27/124/87 25/122/87 
f 88/123/88 89/125/88 29/126/88 27/124/88 
f 89/125/89 90/127/89 31/128/89 29/126/89 
f 90/127/90 73/93/90 33/96/90 31/128/90 
f 91/129/91 92/130/91 32/131/91 34/132/91 
f 92/130/92 93/133/92 30/134/92 32/131/92 
f 93/133/93 94/135/93 28/136/93 30/134/93 
f 94/135/94 95/137/94 26/138/94 28/136/94 
f 95/137/95 96/139/95 24/140/95 26/138/95 
f 96/139/96 97/141/96 22/142/96 24/140/96 
f 97/141/97 98/143/97 20/144/97 22/142/97 
f 98/143/98 99/145/98 18/146/98 20/144/98 
f 99/145/99 100/147/99 16/148/99 18/146/99 
f 100/147/100 101/149/100 14/150/100 16/148/100 
f 101/149/101 102/151/101 12/152/101 14/150/101 
f 102/151/102 103/153/102 10/154/102 12/152/102 
f 103/153/103 104/155/103 8/156/103 10/154/103 
f 104/155/104 105/157/104 6/158/104 8/156/104 
f 105/157/105 106/159/105 3/160/105 6/158/105 
f 106/159/106 107/161/106 4/162/106 3/160/106 
f 107/161/107 108/163/107 36/164/107 4/162/107 
f 108/163/108 91/129/108 34/132/108 36/164/108 
f 109/165/109 110/166/109 47/167/109 45/168/109 
f 110/166/110 111/169/110 49/170/110 47/167/110 
f 111/169/111 112/171/111 51/172/111 49/170/111 
f 112/171/112 113/173/112 53/174/112 51/172/112 
f 113/173/113 114/175/113 55/176/113 53/174/113 
f 114/175/114 115/177/114 57/178/114 55/176/114 
f 115/177/115 116/179/115 59/180/115 57/178/115 
f 116/179/116 117/181/116 61/182/116 59/180/116 
f 117/181/117 118/183/117 63/184/117 61/182/117 
f 118/183/118 119/185/118 65/186/118 63/184/118 
f 119/185/119 120/187/119 67/188/119 65/186/119 
f 120/187/120 121/189/120 69/190/120 67/188/120 
f 121/189/121 122/191/121 71/192/121 69/190/121 
f 122/191/122 123/193/122 37/194/122 71/192/122 
f 123/193/123 124/195/123 38/196/123 37/194/123 
f 124/195/124 125/197/124 41/198/124 38/196/124 
f 125/197/125 126/199/125 43/200/125 41/198/125 
f 126/199/126 109/165/126 45/168/126 43/200/126 
f 127/201/127 128/202/127 48/203/127 50/204/127 
f 128/202/128 129/205/128 46/206/128 48/203/128 
f 129/205/129 130/207/129 44/208/129 46/206/129 
f 130/207/130 131/209/130 42/210/130 44/208/130 
f 131/209/131 132/211/131 39/212/131 42/210/131 
f 132/211/132 133/213/132 40/214/132 39/212/132 
f 133/213/133 134/215/133 72/216/133 40/214/133 
f 134/215/134 135/217/134 70/218/134 72/216/134 
f 135/217/135 136/219/135 68/220/135 70/218/135 
f 136/219/136 137/221/136 66/222/136 68/220/136 
f 137/221/137 138/223/137 64/224/137 66/222/137 
f 138/223/138 139/225/138 62/226/138 64/224/138 
f 139/225/139 140/227/139 60/228/139 62/226/139 
f 140/227/140 141/229/140 58/230/140 60/228/140 
f 141/229/141 142/231/141 56/232/141 58/230/141 
f 142/231/142 143/233/142 54/234/142 56/232/142 
f 143/233/143 144/235/143 52/236/143 54/234/143 
f 144/235/144 127/201/144 50/204/144 52/236/144 
# 108 polygons

